<?xml version="1.0" encoding="UTF-8"?>
<svg width="56px" height="56px" viewBox="0 0 56 56" version="1.1" xmlns="http://www.w3.org/2000/svg" xmlns:xlink="http://www.w3.org/1999/xlink">
    <!-- Generator: Sketch 49 (51002) - http://www.bohemiancoding.com/sketch -->
    <title>SB/Icon/EmbedPage/Checkout</title>
    <desc>Created with Sketch.</desc>
    <defs></defs>
    <g id="SB/Icon/EmbedPage/Checkout" stroke="none" stroke-width="1" fill="none" fill-rule="evenodd">
        <g id="Group-5" transform="translate(3.000000, 5.000000)" fill="#4C82FC" fill-rule="nonzero">
            <g id="shopping-cart-(2)" transform="translate(7.000000, 20.000000)">
                <path d="M10.5454545,28 C9.27066263,28 8.22727273,26.9823094 8.22727273,25.7142857 C8.22727273,24.4462621 9.27066263,23.4285714 10.5454545,23.4285714 C11.8202465,23.4285714 12.8636364,24.4462621 12.8636364,25.7142857 C12.8636364,26.9823094 11.8202465,28 10.5454545,28 Z M10.5454545,26 C10.7266861,26 10.8636364,25.8664229 10.8636364,25.7142857 C10.8636364,25.5621486 10.7266861,25.4285714 10.5454545,25.4285714 C10.364223,25.4285714 10.2272727,25.5621486 10.2272727,25.7142857 C10.2272727,25.8664229 10.364223,26 10.5454545,26 Z" id="Oval"></path>
                <path d="M25.0454545,28 C23.7706626,28 22.7272727,26.9823094 22.7272727,25.7142857 C22.7272727,24.4462621 23.7706626,23.4285714 25.0454545,23.4285714 C26.3202465,23.4285714 27.3636364,24.4462621 27.3636364,25.7142857 C27.3636364,26.9823094 26.3202465,28 25.0454545,28 Z M25.0454545,26 C25.2266861,26 25.3636364,25.8664229 25.3636364,25.7142857 C25.3636364,25.5621486 25.2266861,25.4285714 25.0454545,25.4285714 C24.864223,25.4285714 24.7272727,25.5621486 24.7272727,25.7142857 C24.7272727,25.8664229 24.864223,26 25.0454545,26 Z" id="Oval"></path>
                <path d="M4.45709374,1 L0,1 C-0.55228475,1 -1,0.55228475 -1,0 C-1,-0.55228475 -0.55228475,-1 0,-1 L5.27272727,-1 C5.74753002,-1 6.15687292,-0.666126203 6.25231542,-0.201015056 L7.4075267,5.42857143 L29,5.42857143 C29.6292879,5.42857143 30.1021686,6.00286312 29.9814173,6.62045711 L27.8707983,17.4152568 C27.5249015,19.1138449 25.9908453,20.3183435 24.2545455,20.2857143 L11.4605067,20.2855396 C9.70551832,20.3183435 8.17146209,19.1138449 7.82586639,17.4167293 L5.62213392,6.67748295 C5.61423177,6.64663604 5.6077642,6.61521541 5.6028063,6.58329545 L4.45709374,1 Z M7.81793385,7.42857143 L9.78534373,17.0161718 C9.93702627,17.7610362 10.6244939,18.3008169 11.4418182,18.2857143 L24.273234,18.2858889 C25.0718697,18.3008169 25.7593374,17.7610362 25.9094918,17.0238286 L27.7855465,7.42857143 L7.81793385,7.42857143 Z" id="Shape"></path>
            </g>
            <path d="M2.5,25.941402 C2.5,26.4936867 2.05228475,26.941402 1.5,26.941402 C0.94771525,26.941402 0.5,26.4936867 0.5,25.941402 L0.5,4.1 C0.5,2.1117749 2.1117749,0.5 4.1,0.5 L45.6546075,0.5 C47.6428326,0.5 49.2546075,2.1117749 49.2546075,4.1 L49.2546075,36.9 C49.2546075,38.8882251 47.6428326,40.5 45.6546075,40.5 L41.3189127,40.5 C40.7666279,40.5 40.3189127,40.0522847 40.3189127,39.5 C40.3189127,38.9477153 40.7666279,38.5 41.3189127,38.5 L45.6546075,38.5 C46.5382631,38.5 47.2546075,37.7836556 47.2546075,36.9 L47.2546075,4.1 C47.2546075,3.2163444 46.5382631,2.5 45.6546075,2.5 L4.1,2.5 C3.2163444,2.5 2.5,3.2163444 2.5,4.1 L2.5,25.941402 Z" id="Path-6"></path>
            <path d="M6,7.5 C5.17157288,7.5 4.5,6.82842712 4.5,6 C4.5,5.17157288 5.17157288,4.5 6,4.5 C6.82842712,4.5 7.5,5.17157288 7.5,6 C7.5,6.82842712 6.82842712,7.5 6,7.5 Z M6,6.5 C6.27614237,6.5 6.5,6.27614237 6.5,6 C6.5,5.72385763 6.27614237,5.5 6,5.5 C5.72385763,5.5 5.5,5.72385763 5.5,6 C5.5,6.27614237 5.72385763,6.5 6,6.5 Z" id="Oval-4"></path>
            <path d="M10,7.5 C9.17157288,7.5 8.5,6.82842712 8.5,6 C8.5,5.17157288 9.17157288,4.5 10,4.5 C10.8284271,4.5 11.5,5.17157288 11.5,6 C11.5,6.82842712 10.8284271,7.5 10,7.5 Z M10,6.5 C10.2761424,6.5 10.5,6.27614237 10.5,6 C10.5,5.72385763 10.2761424,5.5 10,5.5 C9.72385763,5.5 9.5,5.72385763 9.5,6 C9.5,6.27614237 9.72385763,6.5 10,6.5 Z" id="Oval-4-Copy"></path>
            <path d="M14,7.5 C13.1715729,7.5 12.5,6.82842712 12.5,6 C12.5,5.17157288 13.1715729,4.5 14,4.5 C14.8284271,4.5 15.5,5.17157288 15.5,6 C15.5,6.82842712 14.8284271,7.5 14,7.5 Z M14,6.5 C14.2761424,6.5 14.5,6.27614237 14.5,6 C14.5,5.72385763 14.2761424,5.5 14,5.5 C13.7238576,5.5 13.5,5.72385763 13.5,6 C13.5,6.27614237 13.7238576,6.5 14,6.5 Z" id="Oval-4-Copy-2"></path>
            <polygon id="Path-7" points="1.5 11.5 1.5 9.5 47.457928 9.5 47.457928 11.5"></polygon>
        </g>
    </g>
</svg>