<?xml version="1.0" encoding="UTF-8"?>
<svg width="56px" height="56px" viewBox="0 0 56 56" version="1.1" xmlns="http://www.w3.org/2000/svg" xmlns:xlink="http://www.w3.org/1999/xlink">
    <!-- Generator: Sketch 49 (51002) - http://www.bohemiancoding.com/sketch -->
    <title>SB/Icon/EmbedPage/Login</title>
    <desc>Created with Sketch.</desc>
    <defs></defs>
    <g id="SB/Icon/EmbedPage/Login" stroke="none" stroke-width="1" fill="none" fill-rule="evenodd">
        <g id="log-in" transform="translate(13.000000, 13.000000)" fill="#7E8797" fill-rule="nonzero">
            <path d="M20,1.30000007 C19.2820298,1.30000007 18.6999999,0.717970214 18.6999999,0 C18.6999999,-0.717970214 19.2820298,-1.30000007 20,-1.30000007 L26.6666667,-1.30000007 C29.225586,-1.30000007 31.3000001,0.774413953 31.3000001,3.33333333 L31.3000001,26.6666667 C31.3000001,29.225586 29.225586,31.3000001 26.6666667,31.3000001 L20,31.3000001 C19.2820298,31.3000001 18.6999999,30.7179702 18.6999999,30 C18.6999999,29.2820298 19.2820298,28.6999999 20,28.6999999 L26.6666667,28.6999999 C27.7896456,28.6999999 28.6999999,27.7896456 28.6999999,26.6666667 L28.6999999,3.33333333 C28.6999999,2.21035438 27.7896456,1.30000007 26.6666667,1.30000007 L20,1.30000007 Z" id="Shape"></path>
            <path d="M11.05334,7.39097416 C10.5612685,6.86814825 10.5861999,6.0454114 11.1090258,5.55333996 C11.6318517,5.06126852 12.4545886,5.08619994 12.94666,5.60902584 L20.94666,14.1090258 C21.4177801,14.6095909 21.4177801,15.3904091 20.94666,15.8909742 L12.94666,24.3909742 C12.4545886,24.9138001 11.6318517,24.9387315 11.1090258,24.44666 C10.5861999,23.9545886 10.5612685,23.1318517 11.05334,22.6090258 L18.214776,15 L11.05334,7.39097416 Z" id="Shape"></path>
            <path d="M20,13.6999999 C20.7179702,13.6999999 21.3000001,14.2820298 21.3000001,15 C21.3000001,15.7179702 20.7179702,16.3000001 20,16.3000001 L0,16.3000001 C-0.717970214,16.3000001 -1.30000007,15.7179702 -1.30000007,15 C-1.30000007,14.2820298 -0.717970214,13.6999999 0,13.6999999 L20,13.6999999 Z" id="Shape"></path>
        </g>
    </g>
</svg>