<?xml version="1.0" encoding="UTF-8"?>
<svg width="56px" height="56px" viewBox="0 0 56 56" version="1.1" xmlns="http://www.w3.org/2000/svg" xmlns:xlink="http://www.w3.org/1999/xlink">
    <!-- Generator: Sketch 49 (51002) - http://www.bohemiancoding.com/sketch -->
    <title>SB/Icon/EmbedPage/Pricing</title>
    <desc>Created with Sketch.</desc>
    <defs>
        <filter x="-72.2%" y="-29.2%" width="240.7%" height="166.7%" filterUnits="objectBoundingBox" id="filter-1">
            <feOffset dx="0" dy="1" in="SourceAlpha" result="shadowOffsetOuter1"></feOffset>
            <feGaussianBlur stdDeviation="1" in="shadowOffsetOuter1" result="shadowBlurOuter1"></feGaussianBlur>
            <feColorMatrix values="0 0 0 0 0   0 0 0 0 0   0 0 0 0 0  0 0 0 0.143597147 0" type="matrix" in="shadowBlurOuter1" result="shadowMatrixOuter1"></feColorMatrix>
            <feMerge>
                <feMergeNode in="shadowMatrixOuter1"></feMergeNode>
                <feMergeNode in="SourceGraphic"></feMergeNode>
            </feMerge>
        </filter>
        <filter x="-72.2%" y="-29.2%" width="240.7%" height="166.7%" filterUnits="objectBoundingBox" id="filter-2">
            <feOffset dx="0" dy="1" in="SourceAlpha" result="shadowOffsetOuter1"></feOffset>
            <feGaussianBlur stdDeviation="1" in="shadowOffsetOuter1" result="shadowBlurOuter1"></feGaussianBlur>
            <feColorMatrix values="0 0 0 0 0   0 0 0 0 0   0 0 0 0 0  0 0 0 0.143597147 0" type="matrix" in="shadowBlurOuter1" result="shadowMatrixOuter1"></feColorMatrix>
            <feMerge>
                <feMergeNode in="shadowMatrixOuter1"></feMergeNode>
                <feMergeNode in="SourceGraphic"></feMergeNode>
            </feMerge>
        </filter>
    </defs>
    <g id="SB/Icon/EmbedPage/Pricing" stroke="none" stroke-width="1" fill="none" fill-rule="evenodd">
        <g id="Group-4" transform="translate(1.000000, 8.000000)" fill="#4C82FC" fill-rule="nonzero">
            <path d="M6.71291209,23.4824561 C6.17031654,23.4824561 5.73045595,23.0425955 5.73045595,22.5 C5.73045595,21.9574045 6.17031654,21.5175439 6.71291209,21.5175439 L19.2486264,21.5175439 C19.7912219,21.5175439 20.2310825,21.9574045 20.2310825,22.5 C20.2310825,23.0425955 19.7912219,23.4824561 19.2486264,23.4824561 L6.71291209,23.4824561 Z" id="Line-4"></path>
            <path d="M33.7129121,23.4824561 C33.1703165,23.4824561 32.7304559,23.0425955 32.7304559,22.5 C32.7304559,21.9574045 33.1703165,21.5175439 33.7129121,21.5175439 L46.2486264,21.5175439 C46.7912219,21.5175439 47.2310825,21.9574045 47.2310825,22.5 C47.2310825,23.0425955 46.7912219,23.4824561 46.2486264,23.4824561 L33.7129121,23.4824561 Z" id="Line-4-Copy-3"></path>
            <path d="M6.71291209,28.4824561 C6.17031654,28.4824561 5.73045595,28.0425955 5.73045595,27.5 C5.73045595,26.9574045 6.17031654,26.5175439 6.71291209,26.5175439 L19.2486264,26.5175439 C19.7912219,26.5175439 20.2310825,26.9574045 20.2310825,27.5 C20.2310825,28.0425955 19.7912219,28.4824561 19.2486264,28.4824561 L6.71291209,28.4824561 Z" id="Line-4-Copy"></path>
            <path d="M33.7129121,28.4824561 C33.1703165,28.4824561 32.7304559,28.0425955 32.7304559,27.5 C32.7304559,26.9574045 33.1703165,26.5175439 33.7129121,26.5175439 L46.2486264,26.5175439 C46.7912219,26.5175439 47.2310825,26.9574045 47.2310825,27.5 C47.2310825,28.0425955 46.7912219,28.4824561 46.2486264,28.4824561 L33.7129121,28.4824561 Z" id="Line-4-Copy-4"></path>
            <path d="M6.71291209,34.4824561 C6.17031654,34.4824561 5.73045595,34.0425955 5.73045595,33.5 C5.73045595,32.9574045 6.17031654,32.5175439 6.71291209,32.5175439 L19.2486264,32.5175439 C19.7912219,32.5175439 20.2310825,32.9574045 20.2310825,33.5 C20.2310825,34.0425955 19.7912219,34.4824561 19.2486264,34.4824561 L6.71291209,34.4824561 Z" id="Line-4-Copy-2"></path>
            <path d="M33.7129121,34.4824561 C33.1703165,34.4824561 32.7304559,34.0425955 32.7304559,33.5 C32.7304559,32.9574045 33.1703165,32.5175439 33.7129121,32.5175439 L46.2486264,32.5175439 C46.7912219,32.5175439 47.2310825,32.9574045 47.2310825,33.5 C47.2310825,34.0425955 46.7912219,34.4824561 46.2486264,34.4824561 L33.7129121,34.4824561 Z" id="Line-4-Copy-5"></path>
            <path d="M2.55438587,0.98245614 C1.68623305,0.98245614 0.98245614,1.68623305 0.98245614,2.55438587 L0.98245614,37.4456141 C0.98245614,38.3137669 1.68623305,39.0175439 2.55438587,39.0175439 L24.4456141,39.0175439 C25.3137669,39.0175439 26.0175439,38.3137669 26.0175439,37.4456141 L26.0175439,2.55438587 C26.0175439,1.68623305 25.3137669,0.98245614 24.4456141,0.98245614 L2.55438587,0.98245614 Z M2.55438587,-0.98245614 L24.4456141,-0.98245614 C26.398958,-0.98245614 27.9824561,0.601041966 27.9824561,2.55438587 L27.9824561,37.4456141 C27.9824561,39.398958 26.398958,40.9824561 24.4456141,40.9824561 L2.55438587,40.9824561 C0.601041966,40.9824561 -0.98245614,39.398958 -0.98245614,37.4456141 L-0.98245614,2.55438587 C-0.98245614,0.601041966 0.601041966,-0.98245614 2.55438587,-0.98245614 Z" id="Rectangle-5"></path>
            <path d="M33.6788976,0.98245614 C33.136302,0.98245614 32.6964414,0.542595544 32.6964414,1.11022302e-16 C32.6964414,-0.542595544 33.136302,-0.98245614 33.6788976,-0.98245614 L51.4456141,-0.98245614 C53.398958,-0.98245614 54.9824561,0.601041966 54.9824561,2.55438587 L54.9824561,37.4456141 C54.9824561,39.398958 53.398958,40.9824561 51.4456141,40.9824561 L33.2307692,40.9824561 C32.6881737,40.9824561 32.2483131,40.5425955 32.2483131,40 C32.2483131,39.4574045 32.6881737,39.0175439 33.2307692,39.0175439 L51.4456141,39.0175439 C52.3137669,39.0175439 53.0175439,38.3137669 53.0175439,37.4456141 L53.0175439,2.55438587 C53.0175439,1.68623305 52.3137669,0.98245614 51.4456141,0.98245614 L33.6788976,0.98245614 Z" id="Rectangle-5-Copy"></path>
            <g id="dollar-sign" filter="url(#filter-1)" transform="translate(10.384615, 5.000000)">
                <path d="M2.54790587,-5.55111512e-17 C2.54790587,-0.271297772 2.76783617,-0.49122807 3.03913394,-0.49122807 C3.31043171,-0.49122807 3.53036201,-0.271297772 3.53036201,-5.55111512e-17 L3.53036201,11.4461538 C3.53036201,11.7174516 3.31043171,11.9373819 3.03913394,11.9373819 C2.76783617,11.9373819 2.54790587,11.7174516 2.54790587,11.4461538 L2.54790587,-5.55111512e-17 Z" id="Shape"></path>
                <path d="M5.57174556,1.58989081 C5.84304333,1.58989081 6.06297363,1.80982111 6.06297363,2.08111888 C6.06297363,2.35241665 5.84304333,2.57234695 5.57174556,2.57234695 L1.77282813,2.57234695 C1.06800973,2.57234695 0.49122807,3.16479429 0.49122807,3.9020979 C0.49122807,4.63940152 1.06800973,5.23184885 1.77282813,5.23184885 L4.30543976,5.23184885 C5.55883323,5.23184888 6.56949592,6.26996169 6.56949592,7.54405594 C6.56949592,8.8181502 5.55883323,9.85626301 4.30543975,9.85626304 L-8.32667268e-16,9.85626304 C-0.271297772,9.85626304 -0.49122807,9.63633274 -0.49122807,9.36503497 C-0.49122807,9.09373719 -0.271297772,8.87380689 -8.32667268e-16,8.87380689 L4.30543974,8.87380689 C5.01025813,8.87380688 5.58703978,8.28135955 5.58703978,7.54405594 C5.58703978,6.80675234 5.01025813,6.21430501 4.30543975,6.21430499 L1.77282813,6.21430499 C0.519434651,6.21430499 -0.49122807,5.17619217 -0.49122807,3.9020979 C-0.49122807,2.62800363 0.519434651,1.58989081 1.77282813,1.58989081 L5.57174556,1.58989081 Z" id="Shape"></path>
            </g>
            <g id="dollar-sign-copy" filter="url(#filter-2)" transform="translate(37.384615, 5.000000)">
                <path d="M2.54790587,-5.55111512e-17 C2.54790587,-0.271297772 2.76783617,-0.49122807 3.03913394,-0.49122807 C3.31043171,-0.49122807 3.53036201,-0.271297772 3.53036201,-5.55111512e-17 L3.53036201,11.4461538 C3.53036201,11.7174516 3.31043171,11.9373819 3.03913394,11.9373819 C2.76783617,11.9373819 2.54790587,11.7174516 2.54790587,11.4461538 L2.54790587,-5.55111512e-17 Z" id="Shape"></path>
                <path d="M5.57174556,1.58989081 C5.84304333,1.58989081 6.06297363,1.80982111 6.06297363,2.08111888 C6.06297363,2.35241665 5.84304333,2.57234695 5.57174556,2.57234695 L1.77282813,2.57234695 C1.06800973,2.57234695 0.49122807,3.16479429 0.49122807,3.9020979 C0.49122807,4.63940152 1.06800973,5.23184885 1.77282813,5.23184885 L4.30543976,5.23184885 C5.55883323,5.23184888 6.56949592,6.26996169 6.56949592,7.54405594 C6.56949592,8.8181502 5.55883323,9.85626301 4.30543975,9.85626304 L-8.8817842e-16,9.85626304 C-0.271297772,9.85626304 -0.49122807,9.63633274 -0.49122807,9.36503497 C-0.49122807,9.09373719 -0.271297772,8.87380689 -8.8817842e-16,8.87380689 L4.30543974,8.87380689 C5.01025813,8.87380688 5.58703978,8.28135955 5.58703978,7.54405594 C5.58703978,6.80675234 5.01025813,6.21430501 4.30543975,6.21430499 L1.77282813,6.21430499 C0.519434651,6.21430499 -0.49122807,5.17619217 -0.49122807,3.9020979 C-0.49122807,2.62800363 0.519434651,1.58989081 1.77282813,1.58989081 L5.57174556,1.58989081 Z" id="Shape"></path>
            </g>
        </g>
    </g>
</svg>